<?xml version="1.0" encoding="UTF-8" standalone="no"?>
<!-- Created with Inkscape (http://www.inkscape.org/) -->

<svg
   xmlns:dc="http://purl.org/dc/elements/1.1/"
   xmlns:cc="http://creativecommons.org/ns#"
   xmlns:rdf="http://www.w3.org/1999/02/22-rdf-syntax-ns#"
   xmlns:svg="http://www.w3.org/2000/svg"
   xmlns="http://www.w3.org/2000/svg"
   xmlns:sodipodi="http://sodipodi.sourceforge.net/DTD/sodipodi-0.dtd"
   xmlns:inkscape="http://www.inkscape.org/namespaces/inkscape"
   width="84.666672mm"
   height="28.222223mm"
   viewBox="0 0 300.00003 100"
   id="svg4417"
   version="1.1"
   inkscape:version="0.91 r13725"
   sodipodi:docname="bt_clipboard_hover.svg">
  <defs
     id="defs4419" />
  <sodipodi:namedview
     id="base"
     pagecolor="#ffffff"
     bordercolor="#666666"
     borderopacity="1.0"
     inkscape:pageopacity="0.0"
     inkscape:pageshadow="2"
     inkscape:zoom="1.4"
     inkscape:cx="-89.23291"
     inkscape:cy="23.617472"
     inkscape:document-units="px"
     inkscape:current-layer="layer1"
     showgrid="false"
     fit-margin-top="0"
     fit-margin-left="0"
     fit-margin-right="0"
     fit-margin-bottom="0"
     inkscape:window-width="1920"
     inkscape:window-height="1017"
     inkscape:window-x="-8"
     inkscape:window-y="-8"
     inkscape:window-maximized="1" />
  <metadata
     id="metadata4422">
    <rdf:RDF>
      <cc:Work
         rdf:about="">
        <dc:format>image/svg+xml</dc:format>
        <dc:type
           rdf:resource="http://purl.org/dc/dcmitype/StillImage" />
        <dc:title />
      </cc:Work>
    </rdf:RDF>
  </metadata>
  <g
     inkscape:label="Capa 1"
     inkscape:groupmode="layer"
     id="layer1"
     transform="translate(70.873288,-257.76581)">
    <rect
       style="opacity:1;fill:#1be11b;fill-opacity:1;fill-rule:nonzero;stroke:#ffffff;stroke-width:0;stroke-linecap:round;stroke-linejoin:round;stroke-miterlimit:3.4000001;stroke-dasharray:none;stroke-opacity:1"
       id="rect5050"
       width="300"
       height="99.999992"
       x="-70.873283"
       y="257.76581" />
    <g
       transform="translate(-530.54719,-506.2132)"
       id="g5155"
       style="fill:#000000">
      <path
         d="m 521.60673,786.40986 -10.12391,0 0.68306,3.15982 c 0.084,0.39226 0.0799,0.78611 0.0359,1.1736 l 7.23745,0 0,51.07366 -40.07981,0 0,-51.07366 7.23957,0 c -0.044,-0.38961 -0.0461,-0.78346 0.0378,-1.17784 l 0.68319,-3.15558 -10.12562,0 c -1.19664,0 -2.1651,0.97025 -2.1651,2.16651 l 0,55.40722 c 0,1.1944 0.96846,2.16651 2.1651,2.16651 l 44.4124,0 c 1.19663,0 2.16695,-0.97251 2.16695,-2.16651 l 0,-55.40709 c 1.3e-4,-1.19639 -0.97032,-2.16664 -2.16695,-2.16664 z"
         id="path3051-9"
         style="fill:#000000;fill-opacity:1;stroke:#ffffff;stroke-width:0;stroke-miterlimit:4;stroke-dasharray:none;stroke-opacity:1"
         inkscape:connector-curvature="0" />
      <path
         d="m 514.3376,802.06999 -14.80192,0 c -1.19876,0 -2.16709,0.97026 -2.16709,2.16466 0,1.19693 0.96847,2.16665 2.16709,2.16665 l 14.80192,0 c 1.19876,0 2.16696,-0.96972 2.16696,-2.16665 2.7e-4,-1.1944 -0.9682,-2.16466 -2.16696,-2.16466 z"
         id="path3053-6"
         style="fill:#000000;fill-opacity:1;stroke:#ffffff;stroke-width:0;stroke-miterlimit:4;stroke-dasharray:none;stroke-opacity:1"
         inkscape:connector-curvature="0" />
      <path
         d="m 514.3376,815.35801 -14.80192,0 c -1.19876,0 -2.16709,0.97012 -2.16709,2.16652 0,1.19506 0.96847,2.16691 2.16709,2.16691 l 14.80192,0 c 1.19876,0 2.16696,-0.97238 2.16696,-2.16691 2.7e-4,-1.1964 -0.9682,-2.16652 -2.16696,-2.16652 z"
         id="path3055-6"
         style="fill:#000000;fill-opacity:1;stroke:#ffffff;stroke-width:0;stroke-miterlimit:4;stroke-dasharray:none;stroke-opacity:1"
         inkscape:connector-curvature="0" />
      <path
         d="m 483.06528,802.5791 c -0.91401,0.77101 -1.03167,2.13777 -0.26037,3.05318 l 3.16086,3.7451 c 0.41301,0.49003 1.01868,0.76902 1.65576,0.76902 0.0527,0 0.10494,-0.002 0.1594,-0.006 0.69153,-0.0502 1.31827,-0.4316 1.68319,-1.02258 l 5.68624,-9.20404 c 0.62886,-1.01848 0.31469,-2.35145 -0.70386,-2.97966 -1.01868,-0.63283 -2.35193,-0.31463 -2.98092,0.70385 l -4.11635,6.65997 -1.23241,-1.45883 c -0.77156,-0.91541 -2.13582,-1.03291 -3.05154,-0.25978 z"
         id="path3057-7"
         style="fill:#000000;fill-opacity:1;stroke:#ffffff;stroke-width:0;stroke-miterlimit:4;stroke-dasharray:none;stroke-opacity:1"
         inkscape:connector-curvature="0" />
      <path
         d="m 488.25463,814.27701 c -1.79595,0 -3.25097,1.45432 -3.25097,3.24791 0,1.79413 1.45489,3.24832 3.25097,3.24832 1.79449,0 3.24897,-1.45419 3.24897,-3.24832 0,-1.79386 -1.45448,-3.24791 -3.24897,-3.24791 z"
         id="path3059-1"
         style="fill:#000000;fill-opacity:1;stroke:#ffffff;stroke-width:0;stroke-miterlimit:4;stroke-dasharray:none;stroke-opacity:1"
         inkscape:connector-curvature="0" />
      <path
         d="m 514.3376,828.35458 -14.80192,0 c -1.19876,0 -2.16709,0.96827 -2.16709,2.16705 0,1.19453 0.96847,2.16466 2.16709,2.16466 l 14.80192,0 c 1.19876,0 2.16696,-0.97013 2.16696,-2.16466 2.7e-4,-1.19891 -0.9682,-2.16705 -2.16696,-2.16705 z"
         id="path3061-3"
         style="fill:#000000;fill-opacity:1;stroke:#ffffff;stroke-width:0;stroke-miterlimit:4;stroke-dasharray:none;stroke-opacity:1"
         inkscape:connector-curvature="0" />
      <path
         d="m 488.25463,827.27358 c -1.79595,0 -3.25097,1.45419 -3.25097,3.24831 0,1.7936 1.45489,3.24845 3.25097,3.24845 1.79449,0 3.24897,-1.45446 3.24897,-3.24845 0,-1.79412 -1.45448,-3.24831 -3.24897,-3.24831 z"
         id="path3063-7"
         style="fill:#000000;fill-opacity:1;stroke:#ffffff;stroke-width:0;stroke-miterlimit:4;stroke-dasharray:none;stroke-opacity:1"
         inkscape:connector-curvature="0" />
      <path
         d="m 490.20812,791.82482 18.38216,0 c 0.45064,0 0.87624,-0.2015 1.15887,-0.55322 0.28316,-0.34828 0.39234,-0.80877 0.29535,-1.24925 l -1.5214,-7.04084 c -0.14867,-0.68517 -0.75421,-1.17361 -1.45462,-1.17361 l -15.33657,0 c -0.69975,0 -1.30542,0.48857 -1.45449,1.17361 l -1.52379,7.04084 c -0.0921,0.44035 0.0166,0.90097 0.29774,1.24925 0.28289,0.35186 0.70849,0.55322 1.15675,0.55322 z"
         id="path3065-0"
         style="fill:#000000;fill-opacity:1;stroke:#ffffff;stroke-width:0;stroke-miterlimit:4;stroke-dasharray:none;stroke-opacity:1"
         inkscape:connector-curvature="0" />
    </g>
    <flowRoot
       xml:space="preserve"
       id="flowRoot4143"
       style="font-style:normal;font-weight:normal;font-size:40px;line-height:125%;font-family:sans-serif;letter-spacing:0px;word-spacing:0px;fill:#000000;fill-opacity:1;stroke:none;stroke-width:1px;stroke-linecap:butt;stroke-linejoin:miter;stroke-opacity:1"
       transform="translate(-70.873288,257.76581)"><flowRegion
         id="flowRegion4145"><rect
           id="rect4147"
           width="178.29192"
           height="85.862968"
           x="-207.08127"
           y="-1.0152501" /></flowRegion><flowPara
         id="flowPara4149">Configuració</flowPara></flowRoot>    <g
       transform="matrix(1.1706012,0,0,1.5371962,519.42573,399.46597)"
       style="font-style:normal;font-weight:normal;font-size:40px;line-height:125%;font-family:sans-serif;letter-spacing:0px;word-spacing:0px;fill:#000000;fill-opacity:1;stroke:none;stroke-width:1px;stroke-linecap:butt;stroke-linejoin:miter;stroke-opacity:1"
       id="flowRoot4151">
      <path
         d="m -427.49742,-45.985572 q -2.92,0 -5.32,-0.96 -2.4,-0.96 -4.12,-2.8 -1.72,-1.84 -2.68,-4.52 -0.92,-2.72 -0.92,-6.2 0,-3.48 1.04,-6.16 1.08,-2.72 2.88,-4.56 1.8,-1.84 4.2,-2.8 2.4,-0.96 5.12,-0.96 1.72,0 3.08,0.24 1.4,0.24 2.4,0.56 1.04,0.32 1.68,0.64 0.64,0.32 0.88,0.48 l -1.12,3.2 q -0.36,-0.24 -1.04,-0.52 -0.68,-0.28 -1.56,-0.56 -0.84,-0.28 -1.88,-0.44 -1,-0.2 -2.04,-0.2 -2.2,0 -3.96,0.76 -1.76,0.76 -3,2.2 -1.24,1.44 -1.92,3.52 -0.64,2.04 -0.64,4.6 0,2.48 0.56,4.52 0.6,2.04 1.76,3.52 1.16,1.44 2.88,2.24 1.76,0.8 4.08,0.8 2.68,0 4.44,-0.56 1.76,-0.56 2.64,-1 l 1,3.2 q -0.28,0.2 -1,0.52 -0.72,0.28 -1.8,0.56 -1.08,0.28 -2.52,0.48 -1.44,0.2 -3.12,0.2 z"
         style="font-style:normal;font-variant:normal;font-weight:normal;font-stretch:normal;font-family:Ubuntu;-inkscape-font-specification:Ubuntu"
         id="path4152" />
      <path
         d="m -397.1568,-56.985572 q 0,2.48 -0.72,4.48 -0.72,2 -2.04,3.44 -1.28,1.44 -3.08,2.24 -1.8,0.76 -3.92,0.76 -2.12,0 -3.92,-0.76 -1.8,-0.8 -3.12,-2.24 -1.28,-1.44 -2,-3.44 -0.72,-2 -0.72,-4.48 0,-2.44 0.72,-4.44 0.72,-2.04 2,-3.48 1.32,-1.44 3.12,-2.2 1.8,-0.8 3.92,-0.8 2.12,0 3.92,0.8 1.8,0.76 3.08,2.2 1.32,1.44 2.04,3.48 0.72,2 0.72,4.44 z m -3.88,0 q 0,-3.52 -1.6,-5.56 -1.56,-2.08 -4.28,-2.08 -2.72,0 -4.32,2.08 -1.56,2.04 -1.56,5.56 0,3.52 1.56,5.6 1.6,2.04 4.32,2.04 2.72,0 4.28,-2.04 1.6,-2.08 1.6,-5.6 z"
         style="font-style:normal;font-variant:normal;font-weight:normal;font-stretch:normal;font-family:Ubuntu;-inkscape-font-specification:Ubuntu"
         id="path4154" />
      <path
         d="m -377.48305,-56.945572 q 0,-3.64 -1.8,-5.6 -1.8,-1.96 -4.8,-1.96 -1.68,0 -2.64,0.12 -0.92,0.12 -1.48,0.28 l 0,13.12 q 0.68,0.56 1.96,1.08 1.28,0.52 2.8,0.52 1.6,0 2.72,-0.56 1.16,-0.6 1.88,-1.6 0.72,-1.04 1.04,-2.4 0.32,-1.4 0.32,-3 z m 3.88,0 q 0,2.36 -0.64,4.36 -0.6,2 -1.8,3.44 -1.2,1.44 -2.96,2.24 -1.72,0.8 -3.96,0.8 -1.8,0 -3.2,-0.48 -1.36,-0.48 -2.04,-0.92 l 0,8.32 -3.72,0 0,-27.56 q 1.32,-0.32 3.28,-0.68 2,-0.4 4.6,-0.4 2.4,0 4.32,0.76 1.92,0.76 3.28,2.16 1.36,1.4 2.08,3.44 0.76,2 0.76,4.52 z"
         style="font-style:normal;font-variant:normal;font-weight:normal;font-stretch:normal;font-family:Ubuntu;-inkscape-font-specification:Ubuntu"
         id="path4156" />
      <path
         d="m -371.31617,-42.705572 q 0.44,0.2 1.12,0.36 0.72,0.2 1.4,0.2 2.2,0 3.44,-1 1.24,-0.96 2.24,-3.16 -2.52,-4.8 -4.72,-10.16 -2.16,-5.4 -3.6,-10.92 l 4,0 q 0.44,1.8 1.04,3.88 0.64,2.08 1.4,4.28 0.76,2.2 1.64,4.4 0.88,2.2 1.84,4.24 1.52,-4.2 2.64,-8.32 1.12,-4.12 2.12,-8.48 l 3.84,0 q -1.44,5.88 -3.2,11.32 -1.76,5.4 -3.8,10.12 -0.8,1.8 -1.68,3.08 -0.84,1.32 -1.88,2.16 -1.04,0.84 -2.36,1.24 -1.28,0.4 -2.92,0.4 -0.44,0 -0.92,-0.08 -0.48,-0.04 -0.96,-0.16 -0.44,-0.08 -0.84,-0.2 -0.36,-0.12 -0.52,-0.2 l 0.68,-3 z"
         style="font-style:normal;font-variant:normal;font-weight:normal;font-stretch:normal;font-family:Ubuntu;-inkscape-font-specification:Ubuntu"
         id="path4158" />
      <path
         d="m -321.05367,-74.305572 0,3.36 -8.72,0 0,24.36 -3.88,0 0,-24.36 -8.72,0 0,-3.36 21.32,0 z"
         style="font-style:normal;font-variant:normal;font-weight:normal;font-stretch:normal;font-family:Ubuntu;-inkscape-font-specification:Ubuntu"
         id="path4160" />
      <path
         d="m -313.43742,-46.585572 -3.72,0 0,-20.8 3.72,0 0,20.8 z m -1.88,-24.56 q -1,0 -1.72,-0.64 -0.68,-0.68 -0.68,-1.8 0,-1.12 0.68,-1.76 0.72,-0.68 1.72,-0.68 1,0 1.68,0.68 0.72,0.64 0.72,1.76 0,1.12 -0.72,1.8 -0.68,0.64 -1.68,0.64 z"
         style="font-style:normal;font-variant:normal;font-weight:normal;font-stretch:normal;font-family:Ubuntu;-inkscape-font-specification:Ubuntu"
         id="path4162" />
      <path
         d="m -307.00117,-66.785572 q 1.28,-0.32 3.36,-0.68 2.12,-0.36 4.88,-0.36 2,0 3.36,0.56 1.36,0.52 2.28,1.56 0.28,-0.2 0.88,-0.56 0.6,-0.36 1.48,-0.68 0.88,-0.36 1.96,-0.6 1.08,-0.28 2.32,-0.28 2.4,0 3.92,0.72 1.52,0.68 2.36,1.96 0.88,1.28 1.16,3.04 0.32,1.76 0.32,3.84 l 0,11.68 -3.72,0 0,-10.88 q 0,-1.84 -0.2,-3.16 -0.16,-1.32 -0.68,-2.2 -0.48,-0.88 -1.36,-1.28 -0.84,-0.44 -2.2,-0.44 -1.88,0 -3.12,0.52 -1.2,0.48 -1.64,0.88 0.32,1.04 0.48,2.28 0.16,1.24 0.16,2.6 l 0,11.68 -3.72,0 0,-10.88 q 0,-1.84 -0.2,-3.16 -0.2,-1.32 -0.72,-2.2 -0.48,-0.88 -1.36,-1.28 -0.84,-0.44 -2.16,-0.44 -0.56,0 -1.2,0.04 -0.64,0.04 -1.24,0.12 -0.56,0.04 -1.04,0.12 -0.48,0.08 -0.64,0.12 l 0,17.56 -3.72,0 0,-20.2 z"
         style="font-style:normal;font-variant:normal;font-weight:normal;font-stretch:normal;font-family:Ubuntu;-inkscape-font-specification:Ubuntu"
         id="path4164" />
      <path
         d="m -273.70805,-56.945572 q 0,-2.76 0.8,-4.8 0.8,-2.08 2.12,-3.44 1.32,-1.36 3.04,-2.04 1.72,-0.68 3.52,-0.68 4.2,0 6.44,2.64 2.24,2.6 2.24,7.96 0,0.24 0,0.64 0,0.36 -0.04,0.68 l -14.24,0 q 0.24,3.24 1.88,4.92 1.64,1.68 5.12,1.68 1.96,0 3.28,-0.32 1.36,-0.36 2.04,-0.68 l 0.52,3.12 q -0.68,0.36 -2.4,0.76 -1.68,0.4 -3.84,0.4 -2.72,0 -4.72,-0.8 -1.96,-0.84 -3.24,-2.28 -1.28,-1.44 -1.92,-3.4 -0.6,-2 -0.6,-4.36 z m 14.28,-2.04 q 0.04,-2.52 -1.28,-4.12 -1.28,-1.64 -3.56,-1.64 -1.28,0 -2.28,0.52 -0.96,0.48 -1.64,1.28 -0.68,0.8 -1.08,1.84 -0.36,1.04 -0.48,2.12 l 10.32,0 z"
         style="font-style:normal;font-variant:normal;font-weight:normal;font-stretch:normal;font-family:Ubuntu;-inkscape-font-specification:Ubuntu"
         id="path4166" />
    </g>
  </g>
</svg>
