<?xml version="1.0" encoding="UTF-8" standalone="no"?>
<!-- Created with Inkscape (http://www.inkscape.org/) -->

<svg
   xmlns:dc="http://purl.org/dc/elements/1.1/"
   xmlns:cc="http://creativecommons.org/ns#"
   xmlns:rdf="http://www.w3.org/1999/02/22-rdf-syntax-ns#"
   xmlns:svg="http://www.w3.org/2000/svg"
   xmlns="http://www.w3.org/2000/svg"
   xmlns:sodipodi="http://sodipodi.sourceforge.net/DTD/sodipodi-0.dtd"
   xmlns:inkscape="http://www.inkscape.org/namespaces/inkscape"
   width="56.444443mm"
   height="28.222221mm"
   viewBox="0 0 200 99.999995"
   id="svg4417"
   version="1.1"
   inkscape:version="0.91 r13725"
   sodipodi:docname="bt_clipboard.svg">
  <defs
     id="defs4419" />
  <sodipodi:namedview
     id="base"
     pagecolor="#ffffff"
     bordercolor="#666666"
     borderopacity="1.0"
     inkscape:pageopacity="0.0"
     inkscape:pageshadow="2"
     inkscape:zoom="1.979899"
     inkscape:cx="198.22027"
     inkscape:cy="40.254829"
     inkscape:document-units="px"
     inkscape:current-layer="layer1"
     showgrid="false"
     fit-margin-top="0"
     fit-margin-left="0"
     fit-margin-right="0"
     fit-margin-bottom="0"
     inkscape:window-width="1920"
     inkscape:window-height="1017"
     inkscape:window-x="-8"
     inkscape:window-y="-8"
     inkscape:window-maximized="1" />
  <metadata
     id="metadata4422">
    <rdf:RDF>
      <cc:Work
         rdf:about="">
        <dc:format>image/svg+xml</dc:format>
        <dc:type
           rdf:resource="http://purl.org/dc/dcmitype/StillImage" />
        <dc:title></dc:title>
      </cc:Work>
    </rdf:RDF>
  </metadata>
  <g
     inkscape:label="Capa 1"
     inkscape:groupmode="layer"
     id="layer1"
     transform="translate(70.873281,-257.76581)">
    <rect
       style="opacity:1;fill:#008800;fill-opacity:1;fill-rule:nonzero;stroke:#ffffff;stroke-width:0;stroke-linecap:round;stroke-linejoin:round;stroke-miterlimit:3.4000001;stroke-dasharray:none;stroke-opacity:1"
       id="rect5050"
       width="200"
       height="99.999992"
       x="-70.873283"
       y="257.76581" />
    <g
       transform="translate(-470.27477,-506.2132)"
       id="g5155">
      <path
         d="m 521.60673,786.40986 -10.12391,0 0.68306,3.15982 c 0.084,0.39226 0.0799,0.78611 0.0359,1.1736 l 7.23745,0 0,51.07366 -40.07981,0 0,-51.07366 7.23957,0 c -0.044,-0.38961 -0.0461,-0.78346 0.0378,-1.17784 l 0.68319,-3.15558 -10.12562,0 c -1.19664,0 -2.1651,0.97025 -2.1651,2.16651 l 0,55.40722 c 0,1.1944 0.96846,2.16651 2.1651,2.16651 l 44.4124,0 c 1.19663,0 2.16695,-0.97251 2.16695,-2.16651 l 0,-55.40709 c 1.3e-4,-1.19639 -0.97032,-2.16664 -2.16695,-2.16664 z"
         id="path3051-9"
         style="fill:#ffffff;fill-opacity:1;stroke:#ffffff;stroke-width:0;stroke-miterlimit:4;stroke-dasharray:none;stroke-opacity:1"
         inkscape:connector-curvature="0" />
      <path
         d="m 514.3376,802.06999 -14.80192,0 c -1.19876,0 -2.16709,0.97026 -2.16709,2.16466 0,1.19693 0.96847,2.16665 2.16709,2.16665 l 14.80192,0 c 1.19876,0 2.16696,-0.96972 2.16696,-2.16665 2.7e-4,-1.1944 -0.9682,-2.16466 -2.16696,-2.16466 z"
         id="path3053-6"
         style="fill:#ffffff;fill-opacity:1;stroke:#ffffff;stroke-width:0;stroke-miterlimit:4;stroke-dasharray:none;stroke-opacity:1"
         inkscape:connector-curvature="0" />
      <path
         d="m 514.3376,815.35801 -14.80192,0 c -1.19876,0 -2.16709,0.97012 -2.16709,2.16652 0,1.19506 0.96847,2.16691 2.16709,2.16691 l 14.80192,0 c 1.19876,0 2.16696,-0.97238 2.16696,-2.16691 2.7e-4,-1.1964 -0.9682,-2.16652 -2.16696,-2.16652 z"
         id="path3055-6"
         style="fill:#ffffff;fill-opacity:1;stroke:#ffffff;stroke-width:0;stroke-miterlimit:4;stroke-dasharray:none;stroke-opacity:1"
         inkscape:connector-curvature="0" />
      <path
         d="m 483.06528,802.5791 c -0.91401,0.77101 -1.03167,2.13777 -0.26037,3.05318 l 3.16086,3.7451 c 0.41301,0.49003 1.01868,0.76902 1.65576,0.76902 0.0527,0 0.10494,-0.002 0.1594,-0.006 0.69153,-0.0502 1.31827,-0.4316 1.68319,-1.02258 l 5.68624,-9.20404 c 0.62886,-1.01848 0.31469,-2.35145 -0.70386,-2.97966 -1.01868,-0.63283 -2.35193,-0.31463 -2.98092,0.70385 l -4.11635,6.65997 -1.23241,-1.45883 c -0.77156,-0.91541 -2.13582,-1.03291 -3.05154,-0.25978 z"
         id="path3057-7"
         style="fill:#ffffff;fill-opacity:1;stroke:#ffffff;stroke-width:0;stroke-miterlimit:4;stroke-dasharray:none;stroke-opacity:1"
         inkscape:connector-curvature="0" />
      <path
         d="m 488.25463,814.27701 c -1.79595,0 -3.25097,1.45432 -3.25097,3.24791 0,1.79413 1.45489,3.24832 3.25097,3.24832 1.79449,0 3.24897,-1.45419 3.24897,-3.24832 0,-1.79386 -1.45448,-3.24791 -3.24897,-3.24791 z"
         id="path3059-1"
         style="fill:#ffffff;fill-opacity:1;stroke:#ffffff;stroke-width:0;stroke-miterlimit:4;stroke-dasharray:none;stroke-opacity:1"
         inkscape:connector-curvature="0" />
      <path
         d="m 514.3376,828.35458 -14.80192,0 c -1.19876,0 -2.16709,0.96827 -2.16709,2.16705 0,1.19453 0.96847,2.16466 2.16709,2.16466 l 14.80192,0 c 1.19876,0 2.16696,-0.97013 2.16696,-2.16466 2.7e-4,-1.19891 -0.9682,-2.16705 -2.16696,-2.16705 z"
         id="path3061-3"
         style="fill:#ffffff;fill-opacity:1;stroke:#ffffff;stroke-width:0;stroke-miterlimit:4;stroke-dasharray:none;stroke-opacity:1"
         inkscape:connector-curvature="0" />
      <path
         d="m 488.25463,827.27358 c -1.79595,0 -3.25097,1.45419 -3.25097,3.24831 0,1.7936 1.45489,3.24845 3.25097,3.24845 1.79449,0 3.24897,-1.45446 3.24897,-3.24845 0,-1.79412 -1.45448,-3.24831 -3.24897,-3.24831 z"
         id="path3063-7"
         style="fill:#ffffff;fill-opacity:1;stroke:#ffffff;stroke-width:0;stroke-miterlimit:4;stroke-dasharray:none;stroke-opacity:1"
         inkscape:connector-curvature="0" />
      <path
         d="m 490.20812,791.82482 18.38216,0 c 0.45064,0 0.87624,-0.2015 1.15887,-0.55322 0.28316,-0.34828 0.39234,-0.80877 0.29535,-1.24925 l -1.5214,-7.04084 c -0.14867,-0.68517 -0.75421,-1.17361 -1.45462,-1.17361 l -15.33657,0 c -0.69975,0 -1.30542,0.48857 -1.45449,1.17361 l -1.52379,7.04084 c -0.0921,0.44035 0.0166,0.90097 0.29774,1.24925 0.28289,0.35186 0.70849,0.55322 1.15675,0.55322 z"
         id="path3065-0"
         style="fill:#ffffff;fill-opacity:1;stroke:#ffffff;stroke-width:0;stroke-miterlimit:4;stroke-dasharray:none;stroke-opacity:1"
         inkscape:connector-curvature="0" />
    </g>
  </g>
</svg>
