<?xml version="1.0" encoding="UTF-8" standalone="no"?>
<!-- Created with Inkscape (http://www.inkscape.org/) -->

<svg
   xmlns:dc="http://purl.org/dc/elements/1.1/"
   xmlns:cc="http://creativecommons.org/ns#"
   xmlns:rdf="http://www.w3.org/1999/02/22-rdf-syntax-ns#"
   xmlns:svg="http://www.w3.org/2000/svg"
   xmlns="http://www.w3.org/2000/svg"
   xmlns:sodipodi="http://sodipodi.sourceforge.net/DTD/sodipodi-0.dtd"
   xmlns:inkscape="http://www.inkscape.org/namespaces/inkscape"
   width="84.666672mm"
   height="28.222223mm"
   viewBox="0 0 300.00003 100"
   id="svg4417"
   version="1.1"
   inkscape:version="0.91 r13725"
   sodipodi:docname="bt_config_hover.svg">
  <defs
     id="defs4419" />
  <sodipodi:namedview
     id="base"
     pagecolor="#ffffff"
     bordercolor="#666666"
     borderopacity="1.0"
     inkscape:pageopacity="0.0"
     inkscape:pageshadow="2"
     inkscape:zoom="1.979899"
     inkscape:cx="31.545104"
     inkscape:cy="40.254831"
     inkscape:document-units="px"
     inkscape:current-layer="flowRoot4151"
     showgrid="false"
     fit-margin-top="0"
     fit-margin-left="0"
     fit-margin-right="0"
     fit-margin-bottom="0"
     inkscape:window-width="1920"
     inkscape:window-height="1017"
     inkscape:window-x="-8"
     inkscape:window-y="-8"
     inkscape:window-maximized="1" />
  <metadata
     id="metadata4422">
    <rdf:RDF>
      <cc:Work
         rdf:about="">
        <dc:format>image/svg+xml</dc:format>
        <dc:type
           rdf:resource="http://purl.org/dc/dcmitype/StillImage" />
        <dc:title />
      </cc:Work>
    </rdf:RDF>
  </metadata>
  <g
     inkscape:label="Capa 1"
     inkscape:groupmode="layer"
     id="layer1"
     transform="translate(70.873288,-257.76581)">
    <rect
       style="opacity:1;fill:#1be11b;fill-opacity:1;fill-rule:nonzero;stroke:#ffffff;stroke-width:0;stroke-linecap:round;stroke-linejoin:round;stroke-miterlimit:3.4000001;stroke-dasharray:none;stroke-opacity:1"
       id="rect5050"
       width="300"
       height="99.999992"
       x="-70.873283"
       y="257.76581" />
    <g
       transform="translate(-203.97396,-269.08121)"
       id="g5141">
      <path
         style="stroke:#000000;stroke-width:1.99358249;stroke-miterlimit:4;stroke-dasharray:none;stroke-opacity:1"
         inkscape:connector-curvature="0"
         d="m 207.50174,569.34574 -6.31735,0 c -1.01538,0 -1.85195,-0.55884 -2.24084,-1.49652 -0.3889,-0.93765 -0.19132,-1.92532 0.5252,-2.64294 l 4.46666,-4.46451 c 0.6565,-0.65637 1.01789,-1.53026 1.01789,-2.45793 0,-0.92889 -0.36139,-1.80153 -1.01789,-2.45915 l -5.69337,-5.69222 c -1.31299,-1.31272 -3.6026,-1.31522 -4.91809,0 l -4.46541,4.46451 c -0.71778,0.71638 -1.70815,0.91639 -2.64349,0.52633 -0.93786,-0.38881 -1.49682,-1.2252 -1.49682,-2.24038 l 0,-6.31606 c 0,-1.91658 -1.55932,-3.4756 -3.4763,-3.4756 l -8.05301,0 c -1.91696,0 -3.4763,1.55902 -3.4763,3.4756 l 0,6.31606 c 0,1.01518 -0.55896,1.85157 -1.4968,2.24038 -0.93535,0.39132 -1.92572,0.19005 -2.64349,-0.52633 l -4.46542,-4.46451 c -1.3155,-1.31522 -3.60511,-1.31272 -4.91809,0 l -5.69338,5.69222 c -0.6565,0.65636 -1.01787,1.53026 -1.01787,2.45915 0,0.92767 0.36137,1.80032 1.01787,2.45793 l 4.46667,4.46451 c 0.71652,0.71762 0.91285,1.70529 0.5252,2.64294 -0.38765,0.93768 -1.22547,1.49652 -2.24084,1.49652 l -6.31736,0 c -1.91697,0 -3.4763,1.55901 -3.4763,3.47559 l 0,8.05012 c 0,1.91781 1.55933,3.47684 3.4763,3.47684 l 6.31736,0 c 1.01537,0 1.85193,0.55884 2.24084,1.4965 0.38889,0.93766 0.19132,1.92533 -0.5252,2.64294 l -4.46667,4.46453 c -0.6565,0.65635 -1.01787,1.53025 -1.01787,2.4579 0,0.92892 0.36137,1.80156 1.01787,2.45917 l 5.69338,5.69222 c 1.31424,1.31397 3.60259,1.31648 4.91809,0 l 4.46542,-4.46575 c 0.71777,-0.71638 1.70438,-0.91391 2.64349,-0.52509 0.93784,0.38882 1.4968,1.22521 1.4968,2.24038 l 0,6.31607 c 0,1.91658 1.55934,3.47559 3.4763,3.47559 l 8.05176,0 c 1.91697,0 3.4763,-1.55901 3.4763,-3.47559 l 0,-6.31607 c 0,-1.01517 0.55897,-1.85156 1.49682,-2.24038 0.9391,-0.39007 1.9257,-0.19129 2.64347,0.52509 l 4.46544,4.46575 c 1.31548,1.31523 3.60509,1.31273 4.91808,0 l 5.69338,-5.69222 c 0.65649,-0.65636 1.01787,-1.53025 1.01787,-2.45917 0,-0.92765 -0.36138,-1.8003 -1.01787,-2.4579 l -4.46666,-4.46453 c -0.71652,-0.71761 -0.91286,-1.70528 -0.52521,-2.64294 0.38764,-0.93766 1.22671,-1.4965 2.24209,-1.4965 l 6.31735,0 c 1.91698,0 3.47631,-1.55903 3.47631,-3.47559 l 0,-8.05137 c 0,-1.91658 -1.55933,-3.47559 -3.47631,-3.47559 z m 0.97537,11.52696 c 0,0.53759 -0.43767,0.97516 -0.97537,0.97516 l -6.31735,0 c -2.03076,0 -3.77515,1.16521 -4.55171,3.04053 -0.77778,1.87531 -0.36888,3.93315 1.0679,5.3684 l 4.46667,4.4645 c 0.38141,0.38132 0.38141,1.00017 0,1.38025 l -5.69337,5.69222 c -0.38014,0.38006 -0.99913,0.38256 -1.38051,0 l -4.46543,-4.46576 c -1.43678,-1.4365 -3.49381,-1.84283 -5.3695,-1.06768 -1.87571,0.77637 -3.04114,2.52043 -3.04114,4.55077 l 0,6.31607 c 0,0.53759 -0.43767,0.97517 -0.97537,0.97517 l -8.05301,0 c -0.5377,0 -0.97536,-0.43758 -0.97536,-0.97517 l 0,-6.31607 c 0,-2.03034 -1.16544,-3.7744 -3.04115,-4.55077 -0.62898,-0.2613 -1.27672,-0.38883 -1.91696,-0.38883 -1.26797,0 -2.49718,0.50008 -3.45253,1.45525 l -4.46541,4.46576 c -0.38266,0.38256 -1.00163,0.38007 -1.38053,0 l -5.69338,-5.69222 c -0.38138,-0.3813 -0.38138,-1.00016 0,-1.38023 l 4.46667,-4.46451 c 1.43554,-1.43525 1.84568,-3.49309 1.0679,-5.36841 -0.77654,-1.87406 -2.52094,-3.03927 -4.5517,-3.03927 l -6.31736,0 c -0.5377,0 -0.97537,-0.43757 -0.97537,-0.97516 l 0,-8.05137 c 0,-0.53759 0.43767,-0.97517 0.97537,-0.97517 l 6.31736,0 c 2.03076,0 3.77516,-1.1652 4.5517,-3.04052 0.77778,-1.87532 0.36889,-3.93317 -1.0679,-5.3684 l -4.46667,-4.46452 c -0.38138,-0.38131 -0.38138,-1.00017 0,-1.38023 l 5.69338,-5.69222 c 0.38015,-0.38132 0.99912,-0.38132 1.38053,0 l 4.46541,4.4645 c 1.43429,1.434 3.4913,1.84532 5.36949,1.06769 1.87571,-0.77514 3.04115,-2.51919 3.04115,-4.54953 l 0,-6.31606 c 0,-0.53759 0.43766,-0.97517 0.97536,-0.97517 l 8.05176,0 c 0.53895,0 0.97662,0.43758 0.97662,0.97517 l 0,6.31606 c 0,2.03034 1.16543,3.77439 3.04114,4.55078 1.87821,0.77763 3.93396,0.36757 5.3695,-1.06768 l 4.46543,-4.46451 c 0.38263,-0.38131 1.00161,-0.38131 1.38051,0 l 5.69337,5.69222 c 0.38141,0.38131 0.38141,1.00016 0,1.38023 l -4.46667,4.46451 c -1.43553,1.43524 -1.84568,3.4931 -1.0679,5.36841 0.77656,1.87533 2.52095,3.04052 4.55171,3.04052 l 6.31735,0 c 0.5377,-9.5e-4 0.97537,0.43633 0.97537,0.97392 l 0,8.05137 z"
         id="path5-3" />
      <path
         style="stroke:#000000;stroke-width:1.99358249;stroke-miterlimit:4;stroke-dasharray:none;stroke-opacity:1"
         inkscape:connector-curvature="0"
         d="m 177.21542,565.5951 c -6.20605,0 -11.2542,5.04711 -11.2542,11.25191 0,6.2048 5.04815,11.25192 11.2542,11.25192 6.20608,0 11.25421,-5.04712 11.25421,-11.25192 0,-6.2048 -5.04813,-11.25191 -11.25421,-11.25191 z m 0,20.00339 c -4.82555,0 -8.75326,-3.92691 -8.75326,-8.75148 0,-4.82457 3.92771,-8.75149 8.75326,-8.75149 4.82556,0 8.75329,3.92692 8.75329,8.75149 0,4.82457 -3.92773,8.75148 -8.75329,8.75148 z"
         id="path7-4-3" />
    </g>
    <g
       transform="matrix(1.1390068,0,0,1.3931132,520.95719,389.0478)"
       style="font-style:normal;font-weight:normal;font-size:40px;line-height:125%;font-family:sans-serif;letter-spacing:0px;word-spacing:0px;fill:#000000;fill-opacity:1;stroke:none;stroke-width:1px;stroke-linecap:butt;stroke-linejoin:miter;stroke-opacity:1"
       id="flowRoot4151">
      <path
         d="m -427.49742,-45.985572 q -2.92,0 -5.32,-0.96 -2.4,-0.96 -4.12,-2.8 -1.72,-1.84 -2.68,-4.52 -0.92,-2.72 -0.92,-6.2 0,-3.48 1.04,-6.16 1.08,-2.72 2.88,-4.56 1.8,-1.84 4.2,-2.8 2.4,-0.96 5.12,-0.96 1.72,0 3.08,0.24 1.4,0.24 2.4,0.56 1.04,0.32 1.68,0.64 0.64,0.32 0.88,0.48 l -1.12,3.2 q -0.36,-0.24 -1.04,-0.52 -0.68,-0.28 -1.56,-0.56 -0.84,-0.28 -1.88,-0.44 -1,-0.2 -2.04,-0.2 -2.2,0 -3.96,0.76 -1.76,0.76 -3,2.2 -1.24,1.44 -1.92,3.52 -0.64,2.04 -0.64,4.6 0,2.48 0.56,4.52 0.6,2.04 1.76,3.52 1.16,1.44 2.88,2.24 1.76,0.8 4.08,0.8 2.68,0 4.44,-0.56 1.76,-0.56 2.64,-1 l 1,3.2 q -0.28,0.2 -1,0.52 -0.72,0.28 -1.8,0.56 -1.08,0.28 -2.52,0.48 -1.44,0.2 -3.12,0.2 z"
         style="font-style:normal;font-variant:normal;font-weight:normal;font-stretch:normal;font-family:Ubuntu;-inkscape-font-specification:Ubuntu"
         id="path4142" />
      <path
         d="m -397.1568,-56.985572 q 0,2.48 -0.72,4.48 -0.72,2 -2.04,3.44 -1.28,1.44 -3.08,2.24 -1.8,0.76 -3.92,0.76 -2.12,0 -3.92,-0.76 -1.8,-0.8 -3.12,-2.24 -1.28,-1.44 -2,-3.44 -0.72,-2 -0.72,-4.48 0,-2.44 0.72,-4.44 0.72,-2.04 2,-3.48 1.32,-1.44 3.12,-2.2 1.8,-0.8 3.92,-0.8 2.12,0 3.92,0.8 1.8,0.76 3.08,2.2 1.32,1.44 2.04,3.48 0.72,2 0.72,4.44 z m -3.88,0 q 0,-3.52 -1.6,-5.56 -1.56,-2.08 -4.28,-2.08 -2.72,0 -4.32,2.08 -1.56,2.04 -1.56,5.56 0,3.52 1.56,5.6 1.6,2.04 4.32,2.04 2.72,0 4.28,-2.04 1.6,-2.08 1.6,-5.6 z"
         style="font-style:normal;font-variant:normal;font-weight:normal;font-stretch:normal;font-family:Ubuntu;-inkscape-font-specification:Ubuntu"
         id="path4144" />
      <path
         d="m -391.92305,-66.785572 q 1.28,-0.32 3.4,-0.68 2.12,-0.36 4.88,-0.36 2.48,0 4.12,0.72 1.64,0.68 2.6,1.96 1,1.24 1.4,3 0.4,1.76 0.4,3.88 l 0,11.68 -3.72,0 0,-10.88 q 0,-1.92 -0.28,-3.28 -0.24,-1.36 -0.84,-2.2 -0.6,-0.84 -1.6,-1.2 -1,-0.4 -2.48,-0.4 -0.6,0 -1.24,0.04 -0.64,0.04 -1.24,0.12 -0.56,0.04 -1.04,0.12 -0.44,0.08 -0.64,0.12 l 0,17.56 -3.72,0 0,-20.2 z"
         style="font-style:normal;font-variant:normal;font-weight:normal;font-stretch:normal;font-family:Ubuntu;-inkscape-font-specification:Ubuntu"
         id="path4146" />
      <path
         d="m -360.8343,-77.625572 q 1.4,0 2.4,0.2 1,0.16 1.44,0.32 l -0.52,3.2 q -0.44,-0.16 -1.2,-0.32 -0.76,-0.2 -1.84,-0.2 -2.6,0 -3.64,1.44 -1.04,1.4 -1.04,3.8 l 0,1.8 8,0 0,3.12 -8,0 0,17.68 -3.72,0 0,-22.68 q 0,-4 1.96,-6.16 1.96,-2.2 6.16,-2.2 z m 11.2,31.04 -3.72,0 0,-20.8 3.72,0 0,20.8 z m -1.88,-24.56 q -1,0 -1.72,-0.64 -0.68,-0.68 -0.68,-1.8 0,-1.12 0.68,-1.76 0.72,-0.68 1.72,-0.68 1,0 1.68,0.68 0.72,0.64 0.72,1.76 0,1.12 -0.72,1.8 -0.68,0.64 -1.68,0.64 z"
         style="font-style:normal;font-variant:normal;font-weight:normal;font-stretch:normal;font-family:Ubuntu;-inkscape-font-specification:Ubuntu"
         id="path4148" />
      <path
         d="m -330.21117,-48.665572 q -0.48,0.32 -1.88,0.84 -1.36,0.48 -3.2,0.48 -1.88,0 -3.56,-0.6 -1.64,-0.6 -2.88,-1.84 -1.24,-1.28 -1.96,-3.16 -0.72,-1.88 -0.72,-4.48 0,-2.28 0.68,-4.16 0.68,-1.92 1.96,-3.28 1.32,-1.4 3.2,-2.16 1.88,-0.8 4.24,-0.8 2.6,0 4.52,0.4 1.96,0.36 3.28,0.68 l 0,18.56 q 0,4.8 -2.48,6.96 -2.48,2.16 -7.52,2.16 -1.96,0 -3.72,-0.32 -1.72,-0.32 -3,-0.76 l 0.68,-3.24 q 1.12,0.44 2.72,0.76 1.64,0.36 3.4,0.36 3.32,0 4.76,-1.32 1.48,-1.32 1.48,-4.2 l 0,-0.88 z m -0.04,-15.44 q -0.56,-0.16 -1.52,-0.28 -0.92,-0.16 -2.52,-0.16 -3,0 -4.64,1.96 -1.6,1.96 -1.6,5.2 0,1.8 0.44,3.08 0.48,1.28 1.24,2.12 0.8,0.84 1.8,1.24 1.04,0.4 2.12,0.4 1.48,0 2.72,-0.4 1.24,-0.44 1.96,-1 l 0,-12.16 z"
         style="font-style:normal;font-variant:normal;font-weight:normal;font-stretch:normal;font-family:Ubuntu;-inkscape-font-specification:Ubuntu"
         id="path4150" />
      <path
         d="m -303.56617,-47.185572 q -1.28,0.32 -3.4,0.68 -2.08,0.36 -4.84,0.36 -2.4,0 -4.04,-0.68 -1.64,-0.72 -2.64,-2 -1,-1.28 -1.44,-3 -0.44,-1.76 -0.44,-3.88 l 0,-11.68 3.72,0 0,10.88 q 0,3.8 1.2,5.44 1.2,1.64 4.04,1.64 0.6,0 1.24,-0.04 0.64,-0.04 1.2,-0.08 0.56,-0.08 1,-0.12 0.48,-0.08 0.68,-0.16 l 0,-17.56 3.72,0 0,20.2 z"
         style="font-style:normal;font-variant:normal;font-weight:normal;font-stretch:normal;font-family:Ubuntu;-inkscape-font-specification:Ubuntu"
         id="path4152" />
      <path
         d="m -289.47742,-67.825572 q 0.48,0 1.08,0.08 0.64,0.04 1.24,0.16 0.6,0.08 1.08,0.2 0.52,0.08 0.76,0.16 l -0.64,3.24 q -0.44,-0.16 -1.48,-0.36 -1,-0.24 -2.6,-0.24 -1.04,0 -2.08,0.24 -1,0.2 -1.32,0.28 l 0,17.48 -3.72,0 0,-19.92 q 1.32,-0.48 3.28,-0.88 1.96,-0.44 4.4,-0.44 z"
         style="font-style:normal;font-variant:normal;font-weight:normal;font-stretch:normal;font-family:Ubuntu;-inkscape-font-specification:Ubuntu"
         id="path4154" />
      <path
         d="m -282.84867,-56.945572 q 0,-2.76 0.8,-4.8 0.8,-2.08 2.12,-3.44 1.32,-1.36 3.04,-2.04 1.72,-0.68 3.52,-0.68 4.2,0 6.44,2.64 2.24,2.6 2.24,7.96 0,0.24 0,0.64 0,0.36 -0.04,0.68 l -14.24,0 q 0.24,3.24 1.88,4.92 1.64,1.68 5.12,1.68 1.96,0 3.28,-0.32 1.36,-0.36 2.04,-0.68 l 0.52,3.12 q -0.68,0.36 -2.4,0.76 -1.68,0.4 -3.84,0.4 -2.72,0 -4.72,-0.8 -1.96,-0.84 -3.24,-2.28 -1.28,-1.44 -1.92,-3.4 -0.6,-2 -0.6,-4.36 z m 14.28,-2.04 q 0.04,-2.52 -1.28,-4.12 -1.28,-1.64 -3.56,-1.64 -1.28,0 -2.28,0.52 -0.96,0.48 -1.64,1.28 -0.68,0.8 -1.08,1.84 -0.36,1.04 -0.48,2.12 l 10.32,0 z"
         style="font-style:normal;font-variant:normal;font-weight:normal;font-stretch:normal;font-family:Ubuntu;-inkscape-font-specification:Ubuntu"
         id="path4156" />
    </g>
  </g>
</svg>
