<?xml version="1.0" encoding="UTF-8" standalone="no"?>
<!-- Created with Inkscape (http://www.inkscape.org/) -->

<svg
   xmlns:dc="http://purl.org/dc/elements/1.1/"
   xmlns:cc="http://creativecommons.org/ns#"
   xmlns:rdf="http://www.w3.org/1999/02/22-rdf-syntax-ns#"
   xmlns:svg="http://www.w3.org/2000/svg"
   xmlns="http://www.w3.org/2000/svg"
   xmlns:sodipodi="http://sodipodi.sourceforge.net/DTD/sodipodi-0.dtd"
   xmlns:inkscape="http://www.inkscape.org/namespaces/inkscape"
   width="56.444443mm"
   height="28.222221mm"
   viewBox="0 0 200 99.999995"
   id="svg4417"
   version="1.1"
   inkscape:version="0.91 r13725"
   sodipodi:docname="bt_config.svg">
  <defs
     id="defs4419" />
  <sodipodi:namedview
     id="base"
     pagecolor="#ffffff"
     bordercolor="#666666"
     borderopacity="1.0"
     inkscape:pageopacity="0.0"
     inkscape:pageshadow="2"
     inkscape:zoom="1.979899"
     inkscape:cx="198.22027"
     inkscape:cy="40.254829"
     inkscape:document-units="px"
     inkscape:current-layer="layer1"
     showgrid="false"
     fit-margin-top="0"
     fit-margin-left="0"
     fit-margin-right="0"
     fit-margin-bottom="0"
     inkscape:window-width="1920"
     inkscape:window-height="1017"
     inkscape:window-x="-8"
     inkscape:window-y="-8"
     inkscape:window-maximized="1" />
  <metadata
     id="metadata4422">
    <rdf:RDF>
      <cc:Work
         rdf:about="">
        <dc:format>image/svg+xml</dc:format>
        <dc:type
           rdf:resource="http://purl.org/dc/dcmitype/StillImage" />
        <dc:title></dc:title>
      </cc:Work>
    </rdf:RDF>
  </metadata>
  <g
     inkscape:label="Capa 1"
     inkscape:groupmode="layer"
     id="layer1"
     transform="translate(70.873281,-257.76581)">
    <rect
       style="opacity:1;fill:#008800;fill-opacity:1;fill-rule:nonzero;stroke:#ffffff;stroke-width:0;stroke-linecap:round;stroke-linejoin:round;stroke-miterlimit:3.4000001;stroke-dasharray:none;stroke-opacity:1"
       id="rect5050"
       width="200"
       height="99.999992"
       x="-70.873276"
       y="257.76581" />
    <g
       id="g4873"
       transform="matrix(0.95113673,0,0,0.95113673,-433.90662,-246.24329)"
       style="fill:#ffffff;stroke:#ffffff">
      <path
         style="fill:#ffffff;stroke:#ffffff;stroke-width:2.09599996;stroke-miterlimit:4;stroke-dasharray:none;stroke-opacity:1"
         inkscape:connector-curvature="0"
         d="m 518.66324,574.58387 -6.64189,0 c -1.06755,0 -1.94709,-0.58755 -2.35596,-1.5734 -0.40888,-0.98582 -0.20115,-2.02423 0.55218,-2.77872 l 4.69613,-4.69386 c 0.69022,-0.69009 1.07018,-1.60888 1.07018,-2.5842 0,-0.97662 -0.37996,-1.89409 -1.07018,-2.58549 l -5.98586,-5.98465 c -1.38044,-1.38016 -3.78768,-1.38279 -5.17075,0 l -4.69482,4.69387 c -0.75465,0.75318 -1.7959,0.96347 -2.77929,0.55337 -0.98604,-0.40879 -1.57372,-1.28815 -1.57372,-2.35548 l 0,-6.64054 c 0,-2.01504 -1.63943,-3.65415 -3.65489,-3.65415 l -8.46672,0 c -2.01544,0 -3.65489,1.63911 -3.65489,3.65415 l 0,6.64054 c 0,1.06733 -0.58767,1.94669 -1.5737,2.35548 -0.9834,0.41142 -2.02465,0.19981 -2.77929,-0.55337 l -4.69483,-4.69387 c -1.38308,-1.38279 -3.79031,-1.38016 -5.17074,0 l -5.98587,5.98465 c -0.69023,0.69008 -1.07017,1.60887 -1.07017,2.58549 0,0.97532 0.37994,1.8928 1.07017,2.5842 l 4.69613,4.69386 c 0.75333,0.75449 0.95975,1.7929 0.55219,2.77872 -0.40757,0.98585 -1.28843,1.5734 -2.35596,1.5734 l -6.64191,0 c -2.01545,0 -3.65489,1.63911 -3.65489,3.65415 l 0,8.46368 c 0,2.01634 1.63944,3.65546 3.65489,3.65546 l 6.64191,0 c 1.06753,0 1.94707,0.58755 2.35596,1.57338 0.40887,0.98583 0.20114,2.02424 -0.55219,2.77872 l -4.69613,4.69388 c -0.69023,0.69007 -1.07017,1.60887 -1.07017,2.58418 0,0.97664 0.37994,1.89411 1.07017,2.5855 l 5.98587,5.98465 c 1.38175,1.38148 3.78766,1.38411 5.17074,0 l 4.69483,-4.69517 c 0.75464,-0.75318 1.79194,-0.96086 2.77929,-0.55207 0.98603,0.4088 1.5737,1.28816 1.5737,2.35548 l 0,6.64055 c 0,2.01504 1.63945,3.65414 3.65489,3.65414 l 8.46541,0 c 2.01545,0 3.65489,-1.6391 3.65489,-3.65414 l 0,-6.64055 c 0,-1.06732 0.58768,-1.94668 1.57371,-2.35548 0.98735,-0.41011 2.02464,-0.20111 2.77928,0.55207 l 4.69484,4.69517 c 1.38307,1.3828 3.7903,1.38017 5.17074,0 l 5.98587,-5.98465 c 0.69022,-0.69008 1.07017,-1.60886 1.07017,-2.5855 0,-0.97531 -0.37995,-1.89279 -1.07017,-2.58418 l -4.69613,-4.69388 c -0.75333,-0.75448 -0.95975,-1.79289 -0.55219,-2.77872 0.40756,-0.98583 1.28973,-1.57338 2.35728,-1.57338 l 6.64189,0 c 2.01546,0 3.6549,-1.63912 3.6549,-3.65415 l 0,-8.46499 c 0,-2.01504 -1.63944,-3.65415 -3.6549,-3.65415 z m 1.02548,12.11914 c 0,0.56521 -0.46015,1.02526 -1.02548,1.02526 l -6.64189,0 c -2.13509,0 -3.9691,1.22507 -4.78555,3.19673 -0.81774,1.97166 -0.38783,4.13522 1.12276,5.6442 l 4.69614,4.69386 c 0.401,0.40091 0.401,1.05155 0,1.45115 l -5.98586,5.98465 c -0.39967,0.39959 -1.05046,0.40222 -1.45143,0 l -4.69484,-4.69518 c -1.51059,-1.5103 -3.67329,-1.9375 -5.64535,-1.12253 -1.97207,0.81626 -3.19737,2.64991 -3.19737,4.78456 l 0,6.64055 c 0,0.56521 -0.46015,1.02527 -1.02548,1.02527 l -8.46672,0 c -0.56532,0 -1.02547,-0.46006 -1.02547,-1.02527 l 0,-6.64055 c 0,-2.13465 -1.22531,-3.9683 -3.19738,-4.78456 -0.66129,-0.27472 -1.34231,-0.4088 -2.01544,-0.4088 -1.33311,0 -2.62547,0.52577 -3.6299,1.53001 l -4.69482,4.69518 c -0.40231,0.40221 -1.05308,0.3996 -1.45145,0 l -5.98587,-5.98465 c -0.40097,-0.40089 -0.40097,-1.05154 0,-1.45114 l 4.69614,-4.69387 c 1.50929,-1.50898 1.9405,-3.67254 1.12276,-5.6442 -0.81643,-1.97034 -2.65045,-3.19541 -4.78553,-3.19541 l -6.64191,0 c -0.56532,0 -1.02548,-0.46005 -1.02548,-1.02526 l 0,-8.46499 c 0,-0.56521 0.46016,-1.02527 1.02548,-1.02527 l 6.64191,0 c 2.13508,0 3.9691,-1.22506 4.78553,-3.19672 0.81774,-1.97166 0.38784,-4.13523 -1.12276,-5.6442 l -4.69614,-4.69388 c -0.40097,-0.40089 -0.40097,-1.05155 0,-1.45113 l 5.98587,-5.98465 c 0.39968,-0.40091 1.05045,-0.40091 1.45145,0 l 4.69482,4.69386 c 1.50797,1.50767 3.67066,1.94012 5.64534,1.12254 1.97207,-0.81496 3.19738,-2.64861 3.19738,-4.78326 l 0,-6.64054 c 0,-0.56521 0.46015,-1.02527 1.02547,-1.02527 l 8.46541,0 c 0.56664,0 1.02679,0.46006 1.02679,1.02527 l 0,6.64054 c 0,2.13465 1.2253,3.9683 3.19737,4.78457 1.9747,0.81758 4.13607,0.38645 5.64535,-1.12253 l 4.69484,-4.69387 c 0.40229,-0.4009 1.05307,-0.4009 1.45143,0 l 5.98586,5.98465 c 0.401,0.4009 0.401,1.05154 0,1.45114 l -4.69614,4.69387 c -1.50928,1.50897 -1.9405,3.67255 -1.12276,5.6442 0.81645,1.97167 2.65046,3.19672 4.78555,3.19672 l 6.64189,0 c 0.56533,-10e-4 1.02548,0.45875 1.02548,1.02396 l 0,8.46499 z"
         id="path5" />
      <path
         style="fill:#ffffff;stroke:#ffffff;stroke-width:2.09599996;stroke-miterlimit:4;stroke-dasharray:none;stroke-opacity:1"
         inkscape:connector-curvature="0"
         d="m 486.82101,570.64055 c -6.52488,0 -11.83237,5.3064 -11.83237,11.82996 0,6.52356 5.30749,11.82997 11.83237,11.82997 6.5249,0 11.83238,-5.30641 11.83238,-11.82997 0,-6.52356 -5.30748,-11.82996 -11.83238,-11.82996 z m 0,21.03104 c -5.07346,0 -9.20295,-4.12865 -9.20295,-9.20108 0,-5.07242 4.12949,-9.20108 9.20295,-9.20108 5.07346,0 9.20297,4.12866 9.20297,9.20108 0,5.07243 -4.12951,9.20108 -9.20297,9.20108 z"
         id="path7-4" />
    </g>
  </g>
</svg>
