<?xml version="1.0" encoding="UTF-8" standalone="no"?>
<!-- Created with Inkscape (http://www.inkscape.org/) -->

<svg
   xmlns:dc="http://purl.org/dc/elements/1.1/"
   xmlns:cc="http://creativecommons.org/ns#"
   xmlns:rdf="http://www.w3.org/1999/02/22-rdf-syntax-ns#"
   xmlns:svg="http://www.w3.org/2000/svg"
   xmlns="http://www.w3.org/2000/svg"
   xmlns:sodipodi="http://sodipodi.sourceforge.net/DTD/sodipodi-0.dtd"
   xmlns:inkscape="http://www.inkscape.org/namespaces/inkscape"
   width="84.666672mm"
   height="28.222223mm"
   viewBox="0 0 300.00003 100"
   id="svg4417"
   version="1.1"
   inkscape:version="0.91 r13725"
   sodipodi:docname="bt_delete_hover.svg">
  <defs
     id="defs4419" />
  <sodipodi:namedview
     id="base"
     pagecolor="#ffffff"
     bordercolor="#666666"
     borderopacity="1.0"
     inkscape:pageopacity="0.0"
     inkscape:pageshadow="2"
     inkscape:zoom="1.979899"
     inkscape:cx="31.545104"
     inkscape:cy="40.759907"
     inkscape:document-units="px"
     inkscape:current-layer="text4143"
     showgrid="false"
     fit-margin-top="0"
     fit-margin-left="0"
     fit-margin-right="0"
     fit-margin-bottom="0"
     inkscape:window-width="1920"
     inkscape:window-height="1017"
     inkscape:window-x="-8"
     inkscape:window-y="-8"
     inkscape:window-maximized="1" />
  <metadata
     id="metadata4422">
    <rdf:RDF>
      <cc:Work
         rdf:about="">
        <dc:format>image/svg+xml</dc:format>
        <dc:type
           rdf:resource="http://purl.org/dc/dcmitype/StillImage" />
        <dc:title />
      </cc:Work>
    </rdf:RDF>
  </metadata>
  <g
     inkscape:label="Capa 1"
     inkscape:groupmode="layer"
     id="layer1"
     transform="translate(70.873288,-257.76581)">
    <rect
       style="opacity:1;fill:#1be11b;fill-opacity:1;fill-rule:nonzero;stroke:#ffffff;stroke-width:0;stroke-linecap:round;stroke-linejoin:round;stroke-miterlimit:3.4000001;stroke-dasharray:none;stroke-opacity:1"
       id="rect5050"
       width="300"
       height="99.999992"
       x="-70.873283"
       y="257.76581" />
    <g
       transform="translate(-240.75841,-487.64648)"
       id="g5135">
      <path
         inkscape:connector-curvature="0"
         id="path7"
         d="m 237.9934,767.48721 -9.75211,0 0,-6.33843 c 0,-1.27584 -1.02889,-2.26362 -2.30438,-2.26362 -0.12376,0 -0.2063,0.0413 -0.24659,0.0825 -0.0413,-0.0412 -0.12385,-0.0825 -0.16508,-0.0825 l -22.91994,0 -0.16413,0 -0.16509,0 c -1.27549,0 -2.26307,0.98778 -2.26307,2.26362 l 0,6.33852 -9.79333,0 c -2.7986,0 -4.97921,2.18107 -4.97921,4.98022 l 0,3.62193 0,4.52714 4.32075,0 0,46.38383 c 0,2.79925 2.13941,4.93899 4.938,4.93899 l 39.21474,0 c 2.7986,0 4.97912,-2.13974 4.97912,-4.93899 l 0,-46.38383 4.27953,0 0,-4.52714 0,-3.62193 c 0,-2.79915 -2.18147,-4.98031 -4.97921,-4.98031 z m -33.45417,-4.07491 19.13462,0 0,4.07491 -19.13462,0 0,-4.07491 z m 29.5864,63.58821 c 0,0.28882 -0.12377,0.41167 -0.41167,0.41167 l -39.21474,0 c -0.28791,0 -0.41168,-0.12295 -0.41168,-0.41167 l 0,-46.38402 40.03809,0 0,46.38402 z m 4.27954,-50.91116 -48.59725,0 0,-3.62192 c 0,-0.28806 0.12376,-0.45308 0.41167,-0.45308 l 47.77381,0 c 0.28801,0 0.41177,0.16502 0.41177,0.45308 l 0,3.62192 z" />
      <rect
         id="rect9"
         height="37.452579"
         width="4.5674424"
         y="785.92603"
         x="222.39825" />
      <rect
         id="rect11"
         height="37.452579"
         width="4.5674424"
         y="785.92603"
         x="211.86404" />
      <rect
         id="rect13"
         height="37.452579"
         width="4.5674424"
         y="785.92603"
         x="201.32971" />
    </g>
    <g
       transform="scale(0.87264947,1.1459355)"
       style="font-style:normal;font-weight:normal;font-size:53.65733719px;line-height:125%;font-family:sans-serif;letter-spacing:0px;word-spacing:0px;fill:#000000;fill-opacity:1;stroke:none;stroke-width:1px;stroke-linecap:butt;stroke-linejoin:miter;stroke-opacity:1"
       id="text4143">
      <path
         d="m 82.701329,266.01018 q 0,4.82916 -1.502405,8.4242 -1.502405,3.54138 -4.23893,5.90231 -2.736524,2.30726 -6.546195,3.48772 -3.809671,1.12681 -8.370544,1.12681 -2.253608,0 -4.990133,-0.21463 -2.682867,-0.16097 -4.882817,-0.69755 l 0,-36.05773 q 2.19995,-0.53657 4.882817,-0.69754 2.736525,-0.21463 4.990133,-0.21463 4.560873,0 8.370544,1.18046 3.809671,1.1268 6.546195,3.48772 2.736525,2.30727 4.23893,5.90231 1.502405,3.54139 1.502405,8.37055 z m -20.228816,14.38016 q 7.404713,0 11.053412,-3.75601 3.648699,-3.80967 3.648699,-10.62415 0,-6.81449 -3.648699,-10.5705 -3.648699,-3.80967 -11.053412,-3.80967 -2.19995,0 -3.434069,0.0537 -1.180462,0.0537 -1.663378,0.10731 l 0,28.43839 q 0.482916,0.0537 1.663378,0.10732 1.234119,0.0537 3.434069,0.0537 z"
         style="font-style:normal;font-variant:normal;font-weight:normal;font-stretch:normal;font-family:Ubuntu;-inkscape-font-specification:Ubuntu"
         id="path4150"
         inkscape:connector-curvature="0" />
      <path
         d="m 88.54411,270.73202 q 0,-3.70235 1.073147,-6.43888 1.073146,-2.79018 2.843838,-4.61453 1.770693,-1.82435 4.077958,-2.73652 2.307266,-0.91218 4.721847,-0.91218 5.63402,0 8.63883,3.54139 3.00481,3.48772 3.00481,10.67781 0,0.32194 0,0.85851 0,0.48292 -0.0537,0.91218 l -19.102011,0 q 0.321944,4.34624 2.521894,6.59985 2.199951,2.25361 6.868137,2.25361 2.62921,0 4.3999,-0.42926 1.82435,-0.48292 2.73652,-0.91217 l 0.69755,4.18527 q -0.91218,0.48291 -3.21944,1.01949 -2.25361,0.53657 -5.1511,0.53657 -3.6487,0 -6.331567,-1.07315 -2.629209,-1.1268 -4.346244,-3.05846 -1.717035,-1.93167 -2.575552,-4.56088 -0.80486,-2.68286 -0.80486,-5.84865 z m 19.15567,-2.73652 q 0.0537,-3.38041 -1.71704,-5.52671 -1.71703,-2.19995 -4.7755,-2.19995 -1.717033,0 -3.058467,0.69755 -1.287776,0.64388 -2.199951,1.71703 -0.912174,1.07315 -1.448748,2.46824 -0.482916,1.39509 -0.643888,2.84384 l 13.843594,0 z"
         style="font-style:normal;font-variant:normal;font-weight:normal;font-stretch:normal;font-family:Ubuntu;-inkscape-font-specification:Ubuntu"
         id="path4152"
         inkscape:connector-curvature="0" />
      <path
         d="m 128.44336,285.16585 q -4.61453,-0.10732 -6.5462,-1.98533 -1.93166,-1.878 -1.93166,-5.84865 l 0,-33.48217 4.99013,-0.85852 0,33.53583 q 0,1.23412 0.21463,2.03898 0.21463,0.80486 0.69755,1.28778 0.48291,0.48292 1.28777,0.7512 0.80486,0.21463 1.98532,0.3756 l -0.69754,4.18528 z"
         style="font-style:normal;font-variant:normal;font-weight:normal;font-stretch:normal;font-family:Ubuntu;-inkscape-font-specification:Ubuntu"
         id="path4154"
         inkscape:connector-curvature="0" />
      <path
         d="m 133.18868,270.73202 q 0,-3.70235 1.07314,-6.43888 1.07315,-2.79018 2.84384,-4.61453 1.77069,-1.82435 4.07796,-2.73652 2.30726,-0.91218 4.72184,-0.91218 5.63402,0 8.63884,3.54139 3.00481,3.48772 3.00481,10.67781 0,0.32194 0,0.85851 0,0.48292 -0.0537,0.91218 l -19.10201,0 q 0.32194,4.34624 2.52189,6.59985 2.19995,2.25361 6.86814,2.25361 2.62921,0 4.3999,-0.42926 1.82435,-0.48292 2.73653,-0.91217 l 0.69754,4.18527 q -0.91217,0.48291 -3.21944,1.01949 -2.25361,0.53657 -5.1511,0.53657 -3.6487,0 -6.33157,-1.07315 -2.62921,-1.1268 -4.34624,-3.05846 -1.71704,-1.93167 -2.57555,-4.56088 -0.80486,-2.68286 -0.80486,-5.84865 z m 19.15567,-2.73652 q 0.0536,-3.38041 -1.71704,-5.52671 -1.71703,-2.19995 -4.7755,-2.19995 -1.71704,0 -3.05847,0.69755 -1.28778,0.64388 -2.19995,1.71703 -0.91218,1.07315 -1.44875,2.46824 -0.48292,1.39509 -0.64389,2.84384 l 13.8436,0 z"
         style="font-style:normal;font-variant:normal;font-weight:normal;font-stretch:normal;font-family:Ubuntu;-inkscape-font-specification:Ubuntu"
         id="path4156"
         inkscape:connector-curvature="0" />
      <path
         d="m 169.38558,256.72746 10.5705,0 0,4.18527 -10.5705,0 0,12.87776 q 0,2.09264 0.32195,3.48773 0.32194,1.34143 0.96583,2.14629 0.64389,0.7512 1.60972,1.07315 0.96583,0.32194 2.25361,0.32194 2.25361,0 3.59504,-0.48291 1.39509,-0.53658 1.93166,-0.75121 l 0.96584,4.13162 q -0.75121,0.3756 -2.62921,0.91217 -1.87801,0.59023 -4.29259,0.59023 -2.84384,0 -4.72185,-0.69754 -1.82435,-0.7512 -2.95115,-2.19995 -1.1268,-1.44875 -1.60972,-3.54139 -0.42926,-2.14629 -0.42926,-4.93647 l 0,-24.89701 4.99013,-0.85851 0,8.63883 z"
         style="font-style:normal;font-variant:normal;font-weight:normal;font-stretch:normal;font-family:Ubuntu;-inkscape-font-specification:Ubuntu"
         id="path4158"
         inkscape:connector-curvature="0" />
      <path
         d="m 184.22603,270.73202 q 0,-3.70235 1.07315,-6.43888 1.07314,-2.79018 2.84383,-4.61453 1.7707,-1.82435 4.07796,-2.73652 2.30727,-0.91218 4.72185,-0.91218 5.63402,0 8.63883,3.54139 3.00481,3.48772 3.00481,10.67781 0,0.32194 0,0.85851 0,0.48292 -0.0537,0.91218 l -19.10201,0 q 0.32194,4.34624 2.5219,6.59985 2.19995,2.25361 6.86813,2.25361 2.62921,0 4.39991,-0.42926 1.82435,-0.48292 2.73652,-0.91217 l 0.69755,4.18527 q -0.91218,0.48291 -3.21944,1.01949 -2.25361,0.53657 -5.15111,0.53657 -3.6487,0 -6.33156,-1.07315 -2.62921,-1.1268 -4.34625,-3.05846 -1.71703,-1.93167 -2.57555,-4.56088 -0.80486,-2.68286 -0.80486,-5.84865 z m 19.15567,-2.73652 q 0.0537,-3.38041 -1.71704,-5.52671 -1.71703,-2.19995 -4.7755,-2.19995 -1.71703,0 -3.05847,0.69755 -1.28777,0.64388 -2.19995,1.71703 -0.91217,1.07315 -1.44875,2.46824 -0.48291,1.39509 -0.64388,2.84384 l 13.84359,0 z"
         style="font-style:normal;font-variant:normal;font-weight:normal;font-stretch:normal;font-family:Ubuntu;-inkscape-font-specification:Ubuntu"
         id="path4160"
         inkscape:connector-curvature="0" />
    </g>
  </g>
</svg>
